<mxfile host="app.diagrams.net" modified="2021-12-03T14:23:56.181Z" agent="5.0 (X11)" etag="WCvKX48E-dyGk_nA9xCU" version="15.8.9" type="github">
  <diagram id="gdlnoZKZklTp6bTF2Lhv" name="Page-1">
    <mxGraphModel dx="1625" dy="764" grid="1" gridSize="10" guides="1" tooltips="1" connect="1" arrows="1" fold="1" page="1" pageScale="1" pageWidth="827" pageHeight="1169" math="0" shadow="0">
      <root>
        <mxCell id="0" />
        <mxCell id="1" parent="0" />
        <mxCell id="xhJdrprikNvAxsZIHGfB-2" value="PRODUCTION ENVIRONMENT" style="rounded=0;whiteSpace=wrap;html=1;verticalAlign=top;" vertex="1" parent="1">
          <mxGeometry x="40" y="40" width="1130" height="630" as="geometry" />
        </mxCell>
        <mxCell id="xhJdrprikNvAxsZIHGfB-4" value="AU Cluster" style="swimlane;fillColor=#f5f5f5;fontColor=#333333;strokeColor=#666666;" vertex="1" collapsed="1" parent="1">
          <mxGeometry x="640" y="200" width="100" height="23" as="geometry">
            <mxRectangle x="640" y="200" width="410" height="380" as="alternateBounds" />
          </mxGeometry>
        </mxCell>
        <mxCell id="xhJdrprikNvAxsZIHGfB-9" value="CN Cluster" style="swimlane;fillColor=#f5f5f5;fontColor=#333333;strokeColor=#666666;" vertex="1" collapsed="1" parent="1">
          <mxGeometry x="650" y="220" width="100" height="23" as="geometry">
            <mxRectangle x="650" y="220" width="410" height="380" as="alternateBounds" />
          </mxGeometry>
        </mxCell>
        <mxCell id="xhJdrprikNvAxsZIHGfB-10" value="US Cluster" style="swimlane;fillColor=#f5f5f5;fontColor=#333333;strokeColor=#666666;" vertex="1" collapsed="1" parent="1">
          <mxGeometry x="660" y="240" width="110" height="23" as="geometry">
            <mxRectangle x="660" y="240" width="410" height="380" as="alternateBounds" />
          </mxGeometry>
        </mxCell>
        <mxCell id="xhJdrprikNvAxsZIHGfB-11" value="DE Cluster" style="swimlane;fillColor=#f5f5f5;fontColor=#333333;strokeColor=#666666;" vertex="1" parent="1">
          <mxGeometry x="670" y="260" width="410" height="380" as="geometry">
            <mxRectangle x="100" y="240" width="50" height="23" as="alternateBounds" />
          </mxGeometry>
        </mxCell>
        <mxCell id="xhJdrprikNvAxsZIHGfB-12" value="EU Cluster" style="swimlane;fillColor=#f5f5f5;fontColor=#333333;strokeColor=#666666;" vertex="1" parent="1">
          <mxGeometry x="110" y="260" width="490" height="380" as="geometry" />
        </mxCell>
        <mxCell id="xhJdrprikNvAxsZIHGfB-14" value="Web Apps" style="rounded=0;whiteSpace=wrap;html=1;fillColor=#fff2cc;strokeColor=#d6b656;" vertex="1" parent="1">
          <mxGeometry x="140" y="320" width="130" height="80" as="geometry" />
        </mxCell>
        <mxCell id="xhJdrprikNvAxsZIHGfB-17" value="Cloud Backend" style="rounded=0;whiteSpace=wrap;html=1;verticalAlign=top;fillColor=#fff2cc;strokeColor=#d6b656;" vertex="1" parent="1">
          <mxGeometry x="140" y="440" width="410" height="150" as="geometry" />
        </mxCell>
        <mxCell id="xhJdrprikNvAxsZIHGfB-20" value="Directory" style="rounded=0;whiteSpace=wrap;html=1;fillColor=#d5e8d4;strokeColor=#82b366;" vertex="1" parent="1">
          <mxGeometry x="160" y="470" width="70" height="106" as="geometry" />
        </mxCell>
        <mxCell id="xhJdrprikNvAxsZIHGfB-21" value="&lt;div&gt;Master&lt;/div&gt;&lt;div&gt;Cloud&lt;br&gt;&lt;/div&gt;" style="rounded=0;whiteSpace=wrap;html=1;fillColor=#d5e8d4;strokeColor=#82b366;" vertex="1" parent="1">
          <mxGeometry x="250" y="470" width="70" height="106" as="geometry" />
        </mxCell>
        <mxCell id="xhJdrprikNvAxsZIHGfB-22" value="&lt;div&gt;Data&lt;/div&gt;&lt;div&gt;Cloud&lt;br&gt;&lt;/div&gt;" style="rounded=0;whiteSpace=wrap;html=1;fillColor=#d5e8d4;strokeColor=#82b366;" vertex="1" parent="1">
          <mxGeometry x="344" y="470" width="70" height="106" as="geometry" />
        </mxCell>
        <mxCell id="xhJdrprikNvAxsZIHGfB-23" value="OAuth" style="rounded=0;whiteSpace=wrap;html=1;fillColor=#dae8fc;strokeColor=#6c8ebf;" vertex="1" parent="1">
          <mxGeometry x="170" y="539" width="50" height="30" as="geometry" />
        </mxCell>
        <mxCell id="xhJdrprikNvAxsZIHGfB-25" value="OAuth" style="rounded=0;whiteSpace=wrap;html=1;fillColor=#dae8fc;strokeColor=#6c8ebf;" vertex="1" parent="1">
          <mxGeometry x="260" y="539" width="50" height="30" as="geometry" />
        </mxCell>
        <mxCell id="xhJdrprikNvAxsZIHGfB-26" value="Web Apps" style="rounded=0;whiteSpace=wrap;html=1;fillColor=#fff2cc;strokeColor=#d6b656;" vertex="1" parent="1">
          <mxGeometry x="700" y="320" width="130" height="80" as="geometry" />
        </mxCell>
        <mxCell id="xhJdrprikNvAxsZIHGfB-27" value="Cloud Backend" style="rounded=0;whiteSpace=wrap;html=1;verticalAlign=top;fillColor=#fff2cc;strokeColor=#d6b656;" vertex="1" parent="1">
          <mxGeometry x="700" y="440" width="310" height="150" as="geometry" />
        </mxCell>
        <mxCell id="xhJdrprikNvAxsZIHGfB-29" value="&lt;div&gt;Master&lt;/div&gt;&lt;div&gt;Cloud&lt;br&gt;&lt;/div&gt;" style="rounded=0;whiteSpace=wrap;html=1;fillColor=#d5e8d4;strokeColor=#82b366;" vertex="1" parent="1">
          <mxGeometry x="720" y="470" width="70" height="106" as="geometry" />
        </mxCell>
        <mxCell id="xhJdrprikNvAxsZIHGfB-30" value="&lt;div&gt;Data&lt;/div&gt;&lt;div&gt;Cloud&lt;br&gt;&lt;/div&gt;" style="rounded=0;whiteSpace=wrap;html=1;fillColor=#d5e8d4;strokeColor=#82b366;" vertex="1" parent="1">
          <mxGeometry x="814" y="470" width="70" height="106" as="geometry" />
        </mxCell>
        <mxCell id="xhJdrprikNvAxsZIHGfB-32" value="OAuth" style="rounded=0;whiteSpace=wrap;html=1;fillColor=#dae8fc;strokeColor=#6c8ebf;" vertex="1" parent="1">
          <mxGeometry x="730" y="539" width="50" height="30" as="geometry" />
        </mxCell>
      </root>
    </mxGraphModel>
  </diagram>
</mxfile>
